<svg xmlns="http://www.w3.org/2000/svg" x="0px" y="0px" width="30" height="30" viewBox="0,0,256,256"
style="fill:#000000;">
<g fill="#ffffff" fill-rule="nonzero" stroke="none" stroke-width="1" stroke-linecap="butt" stroke-linejoin="miter" stroke-miterlimit="10" stroke-dasharray="" stroke-dashoffset="0" font-family="none" font-weight="none" font-size="none" text-anchor="none" style="mix-blend-mode: normal"><g transform="scale(8.53333,8.53333)"><path d="M8.5,7c0.40133,-4.5307 4.29821,-7.94257 8.84221,-7.74171c4.54401,0.20086 8.12463,3.94326 8.12463,8.49171c0,4.54844 -3.58063,8.29085 -8.12463,8.49171c-4.54401,0.20086 -8.44088,-3.211 -8.84221,-7.74171c0,0 NaN,NaN NaN,NaNcNaN,NaN NaN,NaN NaN,NaNzM22,8c-0.07364,9.31981 -4.16277,16.76307 -9.13333,16.625c-4.97056,-0.13807 -8.9403,-7.80519 -8.86667,-17.125c0,0 NaN,NaN NaN,NaNcNaN,NaN NaN,NaN NaN,NaNzM28.5,9c-0.15931,32.30866 -6.33262,57.94036 -13.78846,57.25c-7.45584,-0.69036 -13.37085,-27.44134 -13.21154,-59.75c0,0 NaN,NaN NaN,NaNcNaN,NaN NaN,NaN NaN,NaNz"></path></g></g>
</svg>